<svg width="40" height="40" viewBox="0 0 40 40" fill="none" xmlns="http://www.w3.org/2000/svg">
<rect width="40" height="40" rx="8" fill="url(#paint0_linear_59_70)"/>
<path fill-rule="evenodd" clip-rule="evenodd" d="M15.8902 13.1882C16.7382 11.6039 19.0096 11.6039 19.8576 13.1882L23.0612 19.1735L23.2922 18.6886C24.1066 16.9787 26.5404 16.9787 27.3549 18.6886L29.7816 23.7838C30.4928 25.2769 29.4041 27.0013 27.7503 27.0013H20.5209C20.5164 27.0013 20.5119 27.0013 20.5073 27.0012H12.2531C10.5531 27.0012 9.46715 25.1883 10.2694 23.6894L15.8902 13.1882ZM20.5345 25.5013H27.7503C28.3016 25.5013 28.6645 24.9265 28.4274 24.4288L26.0006 19.3337C25.7292 18.7637 24.9179 18.7637 24.6464 19.3337L23.7774 21.1582C23.6557 21.4136 23.4007 21.5789 23.1179 21.5855C22.835 21.5921 22.5725 21.4391 22.439 21.1896L18.5352 13.8961C18.2525 13.368 17.4953 13.368 17.2126 13.8961L11.5919 24.3973C11.3245 24.8969 11.6864 25.5012 12.2531 25.5012H20.521C20.5255 25.5012 20.53 25.5012 20.5345 25.5013Z" fill="white"/>
<defs>
<linearGradient id="paint0_linear_59_70" x1="0" y1="0" x2="40" y2="40" gradientUnits="userSpaceOnUse">
<stop stop-color="#FF6900"/>
<stop offset="1" stop-color="#E7000B"/>
</linearGradient>
</defs>
</svg>
